<?xml version="1.0" standalone="no"?>
<!DOCTYPE svg PUBLIC "-//W3C//DTD SVG 20010904//EN"
 "http://www.w3.org/TR/2001/REC-SVG-20010904/DTD/svg10.dtd">
<svg version="1.0" xmlns="http://www.w3.org/2000/svg"
 width="512.000000pt" height="512.000000pt" viewBox="0 0 512.000000 512.000000"
 preserveAspectRatio="xMidYMid meet">

<g transform="translate(0.000000,512.000000) scale(0.100000,-0.100000)"
fill="#ff6565" stroke="none">
<path d="M3140 5113 c-102 -10 -254 -38 -330 -59 -564 -161 -1001 -555 -1206
-1086 -124 -321 -108 -577 58 -933 166 -357 243 -605 284 -920 26 -197 24
-560 -5 -835 -17 -157 -21 -241 -16 -313 18 -271 98 -467 258 -634 361 -377
953 -441 1391 -149 265 176 431 449 467 769 12 107 9 157 -23 365 -31 210 74
422 279 562 370 253 606 552 731 925 171 513 97 1067 -203 1515 -337 504 -921
807 -1537 798 -62 0 -129 -3 -148 -5z m372 -308 c358 -47 653 -196 904 -458
194 -201 316 -432 376 -710 28 -135 31 -397 5 -532 -36 -186 -107 -366 -203
-513 -121 -186 -246 -312 -450 -452 -210 -146 -325 -292 -392 -500 -47 -143
-51 -242 -21 -433 32 -202 16 -316 -66 -483 -159 -324 -554 -494 -913 -394
-196 55 -376 192 -451 345 -76 154 -92 304 -62 585 42 393 38 700 -15 1009
-49 295 -126 535 -271 850 -149 323 -165 470 -81 711 72 203 183 377 347 540
224 224 486 363 788 419 59 11 124 22 143 24 89 9 259 6 362 -8z"/>
<path d="M3122 4394 c-352 -59 -652 -286 -802 -607 -51 -108 -77 -207 -91
-338 -10 -99 -10 -109 9 -152 13 -28 34 -55 54 -67 30 -19 41 -21 118 -14 47
4 108 7 135 6 229 -9 387 -251 297 -456 -30 -66 -105 -141 -182 -182 -105 -55
-136 -133 -87 -218 26 -46 77 -76 128 -76 63 0 190 72 272 154 82 81 127 152
164 258 34 94 38 258 9 353 -50 166 -182 327 -326 397 -82 40 -178 68 -234 68
-31 0 -36 3 -36 23 0 31 60 163 100 222 106 154 261 264 447 317 111 32 305
32 416 0 331 -95 542 -350 573 -694 8 -87 27 -128 76 -158 58 -35 131 -25 180
25 41 41 50 87 38 196 -27 258 -130 470 -318 651 -101 97 -148 131 -258 186
-211 107 -453 145 -682 106z"/>
<path d="M963 3064 c-46 -23 -73 -71 -73 -128 0 -60 8 -75 94 -168 300 -325
386 -796 221 -1214 -51 -127 -133 -254 -243 -375 -62 -68 -72 -88 -72 -139 0
-103 91 -171 190 -141 81 24 273 264 365 456 98 205 138 387 139 625 1 241
-37 421 -133 626 -75 159 -246 393 -330 450 -42 29 -109 32 -158 8z"/>
<path d="M530 2641 c-50 -26 -80 -74 -80 -128 0 -53 10 -73 67 -137 191 -214
202 -545 24 -747 -67 -77 -91 -119 -91 -161 0 -87 60 -150 144 -150 57 0 94
20 146 79 278 313 305 762 65 1098 -107 149 -189 193 -275 146z"/>
<path d="M106 2340 c-97 -29 -136 -161 -71 -238 55 -66 57 -112 9 -182 -47
-68 -53 -114 -25 -174 23 -47 82 -86 129 -86 131 0 258 231 224 410 -23 126
-106 249 -181 270 -41 11 -46 11 -85 0z"/>
</g>
</svg>
